<?xml version="1.0" standalone="no"?>
<!DOCTYPE svg PUBLIC "-//W3C//DTD SVG 20010904//EN"
 "http://www.w3.org/TR/2001/REC-SVG-20010904/DTD/svg10.dtd">
<svg version="1.0" xmlns="http://www.w3.org/2000/svg"
 width="960.000000pt" height="960.000000pt" viewBox="0 0 960.000000 960.000000"
 preserveAspectRatio="xMidYMid meet">
<metadata>
Created by potrace 1.11, written by Peter Selinger 2001-2013
</metadata>
<g transform="translate(0.000000,960.000000) scale(0.100000,-0.100000)"
fill="#000000" stroke="none">
<path d="M4973 8098 c-10 -13 -45 -97 -84 -203 -12 -33 -25 -69 -30 -80 -6
-16 -47 -150 -55 -177 -1 -5 -2 -9 -4 -10 -1 -2 -3 -10 -5 -18 -5 -24 -53
-203 -59 -220 -3 -8 -8 -26 -10 -40 -8 -41 -13 -63 -27 -110 -7 -25 -14 -54
-16 -65 -1 -11 -14 -67 -27 -125 -25 -109 -42 -187 -50 -230 -3 -14 -8 -36
-11 -50 -9 -41 -17 -84 -20 -105 -2 -11 -4 -20 -5 -20 -1 0 -3 -9 -5 -20 -2
-11 -8 -45 -14 -75 -6 -30 -13 -68 -16 -85 -3 -16 -8 -41 -10 -55 -15 -74 -26
-139 -29 -170 -2 -14 -6 -34 -9 -45 -3 -11 -9 -40 -12 -65 -3 -25 -10 -67 -15
-95 -5 -27 -11 -63 -14 -80 -2 -16 -5 -30 -6 -30 -1 0 -3 -13 -5 -30 -6 -52
-15 -116 -21 -149 -3 -17 -7 -47 -9 -66 -2 -19 -4 -35 -5 -35 -2 0 -6 -29 -14
-99 -3 -33 -9 -73 -12 -90 -3 -17 -7 -47 -9 -66 -2 -19 -4 -35 -5 -35 -1 0 -5
-29 -14 -120 -3 -33 -8 -76 -11 -95 -2 -19 -7 -64 -10 -100 -3 -36 -8 -81 -10
-100 -6 -56 -18 -240 -19 -297 -1 -58 -16 -85 -17 -32 0 19 -2 43 -4 54 -21
106 -21 562 0 870 4 61 16 216 20 270 17 201 23 256 29 295 3 19 8 60 10 90 3
30 7 71 10 90 3 19 8 60 11 91 3 31 8 67 11 80 2 13 7 47 9 74 3 28 8 61 10
75 2 14 6 48 10 75 3 28 7 61 9 75 5 28 16 94 21 125 1 11 6 47 10 80 4 33 9
69 11 80 5 22 9 47 19 113 8 48 16 45 -116 44 -194 -2 -427 -50 -506 -104 -23
-15 -44 -28 -48 -28 -4 0 -12 -6 -19 -12 -8 -7 -44 -39 -82 -70 -80 -67 -191
-179 -255 -257 -24 -30 -51 -62 -59 -71 -41 -46 -194 -267 -249 -361 -108
-181 -250 -464 -276 -549 -4 -14 -11 -29 -15 -35 -11 -14 -110 -311 -110 -329
0 -11 8 -13 28 -10 15 3 54 7 87 9 33 2 94 6 135 10 92 8 82 8 102 6 14 -1 10
-12 -21 -63 -70 -117 -224 -436 -286 -593 -8 -20 -29 -73 -63 -162 -11 -27
-24 -61 -30 -76 -7 -16 -12 -34 -12 -41 0 -7 -3 -16 -7 -20 -5 -4 -8 -11 -9
-14 -2 -16 -17 -68 -23 -77 -3 -5 -7 -14 -8 -20 -1 -5 -16 -55 -34 -110 -38
-124 -66 -222 -72 -255 -3 -14 -13 -54 -22 -90 -9 -36 -19 -74 -21 -85 -13
-62 -16 -81 -17 -92 0 -7 -3 -10 -7 -8 -14 9 14 366 45 575 2 14 6 43 10 65 3
22 17 94 30 160 14 66 27 129 29 140 11 61 52 204 87 304 21 63 39 116 39 118
0 4 -85 -2 -180 -12 -89 -9 -133 -8 -127 3 7 10 16 70 22 145 3 34 8 76 11 92
30 183 38 227 49 275 3 14 7 39 10 55 3 17 12 55 20 85 8 30 17 64 19 76 10
53 68 250 98 334 11 30 21 62 23 70 5 24 109 286 145 365 44 98 150 305 160
315 15 14 39 60 32 60 -34 0 -225 -77 -396 -160 -184 -90 -494 -262 -507 -282
-3 -6 -8 -9 -10 -8 -6 4 -88 -47 -235 -145 -75 -49 -143 -94 -153 -100 -18
-11 -52 -35 -271 -194 -80 -58 -150 -110 -156 -116 -6 -5 -23 -19 -39 -30 -31
-22 -90 -69 -149 -118 -21 -18 -47 -39 -57 -47 -10 -8 -31 -25 -47 -37 -16
-12 -40 -33 -54 -45 -14 -13 -41 -36 -60 -53 -19 -16 -65 -57 -103 -90 -38
-33 -98 -88 -134 -123 -36 -34 -77 -73 -91 -86 -101 -92 -345 -358 -444 -483
-57 -73 -61 -91 -13 -53 14 11 29 20 35 20 5 0 17 9 27 20 10 11 20 18 23 16
2 -3 9 0 16 5 23 19 120 78 334 204 38 22 178 102 226 128 57 32 456 235 502
255 254 114 550 215 739 252 28 6 59 13 69 16 18 6 19 2 12 -62 -12 -110 -13
-116 -21 -174 -4 -30 -9 -73 -11 -95 -1 -22 -5 -60 -8 -85 -6 -55 -14 -151
-21 -247 -23 -300 -23 -827 0 -1103 3 -36 7 -94 10 -130 2 -36 7 -87 10 -115
3 -27 7 -68 9 -90 4 -35 14 -116 32 -246 2 -20 7 -54 9 -75 3 -22 7 -46 10
-54 2 -8 7 -35 10 -60 3 -25 8 -58 11 -75 3 -16 7 -41 9 -55 4 -24 40 -214 48
-255 2 -11 7 -36 11 -55 3 -19 8 -46 11 -60 3 -14 8 -38 10 -55 3 -16 8 -37
10 -45 2 -8 6 -26 9 -40 2 -14 18 -86 34 -160 46 -205 63 -282 68 -310 3 -14
9 -38 13 -55 5 -16 14 -57 21 -90 7 -33 16 -71 20 -85 8 -22 14 -53 27 -125 2
-11 6 -27 10 -35 8 -20 8 -17 17 -72 4 -27 12 -48 18 -48 6 0 9 3 6 6 -3 3 0
31 8 63 7 32 15 69 18 82 2 13 14 68 25 123 12 54 23 108 25 120 8 37 65 297
87 391 11 50 22 99 25 110 2 11 7 31 10 45 3 14 7 34 9 45 2 11 4 21 5 23 3 2
3 2 15 57 4 22 9 45 11 50 2 6 5 21 8 35 3 14 15 63 27 110 11 47 22 92 24
100 2 8 11 44 20 80 9 36 19 76 22 89 2 14 6 28 9 33 3 5 8 21 10 36 3 15 16
65 30 112 14 47 27 92 29 100 8 37 27 106 32 120 3 8 7 20 9 27 5 27 49 169
119 388 41 127 73 233 72 236 -1 3 3 12 9 20 6 8 19 39 29 69 10 30 20 60 24
65 3 6 6 15 7 20 1 6 16 45 33 88 17 43 31 84 31 91 0 7 6 19 14 25 7 6 16 25
20 41 3 17 15 51 27 77 58 127 112 258 107 258 -1 0 7 14 20 32 12 17 22 34
22 38 0 9 134 276 175 350 15 28 40 75 56 105 41 78 37 54 -21 -135 -11 -38
-23 -78 -26 -87 -2 -10 -6 -26 -9 -35 -5 -18 -72 -281 -81 -318 -3 -11 -7 -31
-10 -45 -3 -14 -7 -33 -10 -42 -3 -10 -7 -30 -10 -45 -3 -16 -10 -46 -16 -68
-5 -22 -12 -51 -13 -65 -2 -14 -11 -59 -20 -100 -9 -41 -18 -86 -20 -100 -2
-14 -6 -36 -9 -50 -3 -14 -9 -52 -15 -85 -17 -101 -21 -119 -25 -140 -2 -11
-7 -42 -10 -70 -4 -27 -11 -78 -17 -113 -5 -34 -12 -84 -15 -110 -3 -26 -7
-60 -10 -77 -2 -16 -6 -57 -9 -90 -3 -33 -8 -76 -12 -95 -3 -19 -6 -55 -8 -80
-2 -25 -5 -70 -9 -100 -5 -49 -9 -109 -22 -290 -2 -30 -6 -157 -10 -282 l-6
-228 43 24 c24 13 69 34 99 46 30 12 69 28 85 35 29 13 181 63 218 71 9 2 26
6 38 9 11 2 29 7 39 10 10 3 31 7 46 10 16 2 51 8 78 15 27 6 70 13 95 16 25
3 57 7 71 10 39 7 250 15 250 10 0 -3 -27 -34 -60 -68 -34 -35 -78 -88 -98
-118 -20 -30 -40 -57 -43 -60 -10 -8 -104 -210 -124 -265 -10 -27 -22 -54 -27
-60 -18 -21 -6 -25 25 -8 17 10 34 20 37 23 7 7 40 25 140 78 47 25 87 49 88
54 2 4 8 8 14 8 6 0 54 21 107 46 53 25 150 68 216 94 108 43 171 64 332 114
47 15 168 43 218 51 11 2 36 6 55 9 211 37 510 38 690 1 14 -3 41 -8 60 -12
44 -9 37 -7 90 -22 75 -20 184 -58 246 -86 52 -23 87 -41 175 -88 121 -64 290
-197 429 -339 58 -59 117 -111 130 -116 23 -9 114 -8 150 1 60 14 161 56 171
70 3 5 9 8 13 7 8 -2 169 102 216 139 14 11 54 41 90 68 112 82 106 68 65 163
l-35 83 21 36 c27 46 86 189 93 224 2 15 7 30 10 35 2 4 8 46 11 92 4 47 9 88
12 93 2 4 0 7 -6 7 -5 0 -20 -15 -32 -32 -71 -106 -205 -201 -298 -214 -38 -5
-39 -5 -46 33 -5 21 -9 43 -11 48 -23 83 -45 218 -49 306 -2 48 -5 91 -6 95
-1 5 -1 11 0 14 1 3 4 37 6 75 3 60 10 120 20 160 27 117 98 288 141 336 8 8
14 19 14 23 0 9 31 44 112 126 118 119 286 216 458 265 52 15 102 30 110 33 8
2 22 6 30 7 8 2 31 6 50 9 53 10 126 17 213 20 l78 4 -2 -76 c-2 -62 -18 -174
-33 -227 -2 -5 -6 -23 -11 -40 -11 -42 -72 -163 -101 -202 -14 -18 -21 -33
-16 -33 13 0 196 111 200 121 2 5 10 9 18 9 8 0 14 3 14 8 0 4 17 18 37 32 21
14 51 36 68 50 37 31 209 203 251 251 24 28 49 41 122 64 51 16 92 32 92 36 0
4 -7 25 -15 48 -8 23 -14 42 -14 44 0 1 -2 9 -5 17 -6 18 -47 161 -51 175 -1
6 -5 17 -8 25 -3 8 -8 24 -10 35 -3 11 -12 41 -20 66 l-15 47 151 0 c144 0
175 -8 77 -21 -25 -4 -58 -10 -75 -13 -16 -4 -38 -7 -47 -8 -23 0 -23 1 8 -92
14 -44 27 -83 28 -89 1 -5 4 -14 7 -20 4 -5 16 -41 29 -80 34 -107 32 -106 84
-26 25 39 46 76 46 80 0 5 4 11 8 13 4 2 45 62 91 135 l83 132 -30 38 c-38 48
-225 230 -356 346 -56 50 -108 97 -117 106 -9 9 -34 30 -55 48 -22 17 -50 41
-64 53 -58 52 -160 130 -169 130 -5 0 -11 4 -13 8 -3 8 -99 72 -188 126 -25
15 -52 31 -60 36 -72 45 -174 100 -186 100 -8 0 -14 4 -14 8 0 8 -19 18 -169
88 -74 33 -90 45 -76 50 11 4 28 15 38 23 24 21 62 94 51 98 -5 2 -68 47 -140
101 -175 130 -180 134 -324 230 -274 184 -603 363 -850 462 -101 41 -289 109
-320 115 -8 2 -15 4 -15 5 0 1 -13 4 -30 6 -16 3 -35 10 -42 16 -8 6 -16 8
-20 5 -3 -3 -21 0 -39 8 -19 8 -37 14 -39 14 -3 0 -29 5 -58 10 -84 18 -100
21 -137 27 -19 4 -42 8 -50 9 -8 2 -40 6 -70 10 -30 4 -66 9 -80 12 -25 4 -67
8 -163 14 l-49 3 -74 149 c-104 209 -208 383 -236 395 -5 2 -8 8 -8 14 0 27
-212 254 -385 412 -55 50 -58 52 -72 34z m1916 -2200 c188 -55 246 -71 291
-83 14 -4 32 -9 40 -13 8 -3 17 -6 20 -6 3 -1 42 -12 88 -25 76 -22 86 -28
114 -68 17 -23 34 -43 38 -43 3 0 14 -13 23 -30 10 -16 23 -35 30 -42 34 -35
119 -150 115 -154 -3 -2 -11 2 -18 11 -7 8 -19 15 -26 15 -8 0 -14 3 -14 8 0
4 -16 16 -35 26 -19 11 -35 23 -35 28 0 4 -5 8 -11 8 -6 0 -41 21 -78 46 -73
52 -48 48 -256 39 l-60 -2 -80 65 c-44 37 -85 71 -91 77 -6 5 -28 24 -49 40
-21 17 -43 35 -49 40 -6 6 -36 30 -66 54 -77 62 -79 64 -51 56 13 -4 85 -25
160 -47z"/>
</g>
</svg>
